<?xml version="1.0" encoding="utf-8"?>
<!-- Svg Vector Icons : http://www.onlinewebfonts.com/icon -->
<!DOCTYPE svg PUBLIC "-//W3C//DTD SVG 1.1//EN" "http://www.w3.org/Graphics/SVG/1.1/DTD/svg11.dtd">
<svg version="1.1" xmlns="http://www.w3.org/2000/svg" xmlns:xlink="http://www.w3.org/1999/xlink" x="0px" y="0px" viewBox="0 0 1000 1000" enable-background="new 0 0 1000 1000" xml:space="preserve">
<metadata> Svg Vector Icons : http://www.onlinewebfonts.com/icon </metadata>
<g><g transform="translate(0.000000,511.000000) scale(0.100000,-0.100000)"><path d="M2129.2,4971.7c-121.1-48-234.4-155.7-292.1-278.6l-46.1-96.1V3123.1V1647.3h-668.7c-374.7,0-695.6-7.7-732.1-19.2c-107.6-30.7-192.2-99.9-242.1-199.8l-48-96.1V-691.2c0-2194.4-3.8-2098.4,101.8-2211.7c90.3-98,165.3-119.1,426.6-119.1h240.2v989.6v989.6h4169.8h4169.8v-989.6v-989.6H9410c219.1,0,301.7,25,388.2,119.1c105.7,113.4,101.8,17.3,101.8,2211.7v2023.4l-48,96.1c-50,99.9-134.5,169.1-242.1,199.8c-36.5,11.5-344,19.2-693.7,19.2h-630.3v269v269h-451.6h-451.6l-1.9-109.5c0-61.5,0-269,0-461.2l1.9-351.6H5038.4H2692.2l5.8,1341.3c5.8,1104.9,9.6,1348.9,32.7,1373.9c23.1,30.8,146,32.7,1416.2,32.7H5538v499.6v499.6H3881.6C2292.5,5008.2,2219.5,5006.2,2129.2,4971.7z M1427.8,823c53.8-53.8,55.7-63.4,55.7-242.1c0-292.1-23.1-315.1-313.2-317.1c-194.1,0-209.5,1.9-253.7,48c-44.2,44.2-48,59.6-48,249.8c0,301.7,13.5,313.2,313.2,315.1C1366.3,878.7,1372.1,876.8,1427.8,823z"/><path d="M5845.5,4003.2c0-686,7.7-1018.4,21.1-1068.4c36.5-123,149.9-251.7,276.7-317.1l113.4-57.6l1005-5.8c553.4-3.8,1005,0,1005,9.6c0,7.7-543.8,561.1-1210.6,1226L5845.5,5000.5V4003.2z"/><path d="M1179.9-2881.8c5.8-1452.7,7.7-1537.2,42.3-1600.6c59.6-113.4,184.5-228.7,295.9-269c99.9-38.4,153.7-38.4,3518.4-38.4c3816.2,0,3510.7-11.5,3681.7,138.4c48,42.3,107.6,113.4,130.7,157.6l42.3,78.8l5.8,1533.4l3.8,1531.5h-461.2h-461.2v-1235.5c0-935.8-5.8-1241.3-23.1-1258.6c-32.7-32.7-5801.2-32.7-5833.9,0c-17.3,17.3-23.1,322.8-23.1,1258.6v1235.5h-461.2h-461.2L1179.9-2881.8z"/><path d="M2792.1-1630.8c-140.3-117.2-124.9-440.1,25-522.7c55.7-30.8,219.1-32.7,2154.1-38.4c1152.9-3.8,2132.9,0,2179.1,5.8c167.2,25,255.6,176.8,222.9,390.1c-9.6,63.4-30.7,105.7-76.9,151.8l-63.4,63.4H5042.3H2851.7L2792.1-1630.8z"/><path d="M2876.7-2651.2c-196-51.9-251.7-411.2-84.5-551.5l59.6-50h2186.7h2186.7l59.6,50c134.5,111.5,124.9,426.6-15.4,520.8c-46.1,32.7-180.6,34.6-2202.1,36.5C3883.6-2643.5,2897.8-2645.4,2876.7-2651.2z"/></g></g>
</svg>